<svg width="25" height="25" viewBox="0 0 25 25" fill="none" xmlns="http://www.w3.org/2000/svg">
<g clip-path="url(#clip0_811_2346)">
<path d="M20.8116 16.0997C20.9192 15.8486 21.1653 15.6856 21.4347 15.6846H21.525C23.1654 15.6846 24.5 14.35 24.5 12.7095C24.5 11.0692 23.1654 9.73454 21.525 9.73454H21.3584C21.1272 9.7336 20.9154 9.61679 20.7905 9.42872C20.7767 9.36043 20.7556 9.29363 20.7273 9.22951C20.6141 8.9731 20.6667 8.67812 20.8614 8.47679L20.9146 8.42364C20.9161 8.42223 20.9175 8.42078 20.9189 8.41932C21.4805 7.85711 21.7896 7.10983 21.789 6.31516C21.7886 5.52186 21.4797 4.77613 20.9193 4.21485C20.9178 4.21335 20.9164 4.2119 20.9149 4.2104C20.3531 3.64916 19.6065 3.34021 18.8125 3.34021C18.8119 3.34021 18.8113 3.34021 18.8108 3.34021C18.0161 3.34064 17.2692 3.65052 16.708 4.21236L16.6524 4.26796C16.4511 4.46253 16.1562 4.51522 15.8997 4.40207C15.8965 4.40071 15.8933 4.3993 15.8901 4.39794C15.639 4.29032 15.476 4.04418 15.475 3.77484V3.68455C15.475 2.04417 14.1404 0.709557 12.4999 0.709557C10.8595 0.709557 9.52493 2.04417 9.52493 3.68455V3.85119C9.52399 4.08238 9.40718 4.29411 9.21912 4.41899C9.15082 4.43282 9.08403 4.454 9.0199 4.48227C8.76355 4.59547 8.46852 4.54278 8.26719 4.34816L8.20972 4.29065C7.64783 3.72941 6.90135 3.42046 6.1073 3.42046C6.10673 3.42046 6.10608 3.42046 6.10556 3.42046C5.31089 3.42088 4.56395 3.73077 4.00079 4.29458C3.43919 4.85675 3.13014 5.60403 3.13061 6.3987C3.13103 7.19336 3.44092 7.94026 4.00276 8.50145L4.05831 8.557C4.25293 8.75832 4.30562 9.05326 4.19246 9.30971C4.18417 9.32841 4.17657 9.34735 4.16949 9.36652C4.07274 9.62949 3.83082 9.80461 3.5515 9.81469H3.47495C1.83462 9.81469 0.5 11.1493 0.5 12.7897C0.5 14.4302 1.83462 15.7647 3.47509 15.7646H3.64169C3.91496 15.7658 4.16101 15.9287 4.26863 16.1798C4.26999 16.183 4.2714 16.1862 4.27276 16.1894C4.38596 16.4458 4.33327 16.7408 4.1386 16.9421L4.08306 16.9976C4.08179 16.9989 4.08053 17.0003 4.07921 17.0016C3.51883 17.5635 3.21048 18.31 3.21091 19.1038C3.21133 19.8984 3.52122 20.6454 4.08343 21.2069C4.08479 21.2083 4.0862 21.2097 4.0876 21.2111C5.24841 22.3679 7.13381 22.366 8.29189 21.2066L8.34749 21.151C8.54877 20.9564 8.84375 20.9036 9.10015 21.0169C9.11881 21.0251 9.13775 21.0327 9.15692 21.0398C9.41993 21.1365 9.59501 21.3785 9.60513 21.6578V21.7343C9.60513 23.3748 10.9398 24.7094 12.5801 24.7094C14.2206 24.7094 15.5552 23.3748 15.5552 21.7344V21.5679C15.5563 21.2946 15.7193 21.0485 15.9704 20.9409C15.9736 20.9395 15.9768 20.9381 15.9799 20.9368C16.2364 20.8235 16.5313 20.8762 16.7327 21.0709L16.7902 21.1283C17.352 21.6896 18.0986 21.9986 18.8926 21.9985C18.8932 21.9985 18.8938 21.9985 18.8943 21.9985C19.689 21.998 20.436 21.6882 20.9991 21.1244C22.1584 19.9638 22.1573 18.0764 20.9972 16.9175L20.9416 16.8619C20.747 16.6606 20.6943 16.3657 20.8075 16.1092C20.8089 16.1061 20.8103 16.1029 20.8116 16.0997ZM19.5583 18.2208C19.5608 18.2234 19.5633 18.2259 19.5658 18.2284L19.6263 18.2889C20.0304 18.6927 20.0309 19.35 19.6255 19.7557C19.43 19.9516 19.1698 20.0595 18.8931 20.0596C18.8928 20.0596 18.8927 20.0596 18.8925 20.0596C18.6159 20.0596 18.3559 19.952 18.1591 19.7554L18.0989 19.6952C18.0964 19.6927 18.0939 19.6902 18.0913 19.6877C17.3211 18.9344 16.1873 18.7279 15.2014 19.1609C14.2424 19.5743 13.6203 20.5154 13.6161 21.564V21.7344C13.6161 22.3057 13.1513 22.7705 12.58 22.7705C12.0088 22.7705 11.544 22.3057 11.544 21.7344V21.6442C11.544 21.6366 11.5439 21.6291 11.5437 21.6215C11.5186 20.5475 10.8568 19.6124 9.85493 19.2309C8.8745 18.8114 7.7525 19.0206 6.98854 19.7679C6.98601 19.7704 6.98348 19.7729 6.98095 19.7754L6.92038 19.8359C6.5167 20.2401 5.85938 20.2405 5.45517 19.8368C5.454 19.8356 5.45278 19.8344 5.45166 19.8333C5.25708 19.6379 5.14993 19.3786 5.14974 19.1028C5.14955 18.8261 5.25722 18.5659 5.45278 18.3701C5.45391 18.369 5.45499 18.3678 5.45611 18.3668L5.51414 18.3087C5.51667 18.3061 5.51921 18.3036 5.52169 18.301C6.27492 17.531 6.4814 16.3972 6.04851 15.4113C5.63517 14.4521 4.69398 13.8301 3.64539 13.8259H3.4749C2.90364 13.8259 2.43888 13.361 2.43888 12.7898C2.43888 12.2185 2.90369 11.7538 3.4749 11.7537H3.56519C3.57273 11.7537 3.58033 11.7536 3.58787 11.7534C4.66201 11.7283 5.59706 11.0665 5.97853 10.0646C6.39797 9.0842 6.18881 7.9623 5.44153 7.19833C5.43905 7.1958 5.43652 7.19327 5.43399 7.19074L5.37347 7.13018C5.17768 6.93457 5.06977 6.67446 5.06963 6.39771C5.06944 6.12101 5.17711 5.86076 5.37427 5.66337C5.56988 5.46758 5.82998 5.35967 6.10673 5.35953C6.10697 5.35953 6.10711 5.35953 6.10734 5.35953C6.3839 5.35953 6.64392 5.46715 6.84074 5.66379L6.90093 5.72393C6.90342 5.72646 6.90599 5.729 6.90853 5.73148C7.63119 6.43835 8.67416 6.66373 9.61479 6.33096C9.70366 6.31957 9.7908 6.2959 9.87359 6.26042C10.8355 5.84815 11.4598 4.90555 11.464 3.85518V3.6847C11.464 3.11343 11.9287 2.64867 12.5 2.64867C13.0712 2.64867 13.536 3.11348 13.536 3.68474V3.77887C13.5402 4.82356 14.1623 5.76476 15.1214 6.17815C16.1075 6.61118 17.2411 6.40455 18.0112 5.65132C18.0138 5.64884 18.0163 5.64631 18.0189 5.64378L18.0794 5.58326C18.275 5.38747 18.5351 5.27956 18.8118 5.27942C18.8121 5.27942 18.8123 5.27942 18.8125 5.27942C19.0881 5.27942 19.3475 5.38639 19.5429 5.58073C19.544 5.58186 19.5451 5.58293 19.5462 5.58406C19.742 5.77967 19.8499 6.03978 19.8501 6.31652C19.8503 6.59252 19.7432 6.85202 19.5487 7.04763C19.5478 7.04857 19.5468 7.0495 19.5458 7.05049L19.4857 7.11068C19.4831 7.11316 19.4807 7.11569 19.4781 7.11827C18.7713 7.84094 18.5459 8.88395 18.8786 9.82453C18.8901 9.91346 18.9138 10.0006 18.9492 10.0834C19.3615 11.0453 20.3041 11.6696 21.3545 11.6737H21.5249C22.0962 11.6737 22.561 12.1385 22.561 12.7098C22.561 13.281 22.0962 13.7458 21.5249 13.7458H21.4308C20.3861 13.75 19.445 14.3721 19.0315 15.3311C18.5986 16.3169 18.8051 17.4508 19.5583 18.2208Z" fill="#3699FF"/>
<path d="M12.5 8.73079C10.3067 8.73079 8.52222 10.5152 8.52222 12.7086C8.52222 14.9019 10.3066 16.6864 12.5 16.6864C14.6934 16.6864 16.4778 14.9019 16.4778 12.7086C16.4778 10.5152 14.6933 8.73079 12.5 8.73079ZM12.5 14.7474C11.3758 14.7474 10.4612 13.8328 10.4612 12.7085C10.4612 11.5843 11.3758 10.6697 12.5 10.6697C13.6243 10.6697 14.5388 11.5843 14.5388 12.7085C14.5388 13.8327 13.6243 14.7474 12.5 14.7474Z" fill="#3699FF"/>
</g>
<defs>
<clipPath id="clip0_811_2346">
<rect width="24" height="24" fill="white" transform="translate(0.5 0.708557)"/>
</clipPath>
</defs>
</svg>
