<svg width="25" height="24" viewBox="0 0 25 24" fill="none" xmlns="http://www.w3.org/2000/svg">
<path d="M13.5 18H3.5C3.23478 18 2.98043 18.1054 2.79289 18.2929C2.60536 18.4804 2.5 18.7348 2.5 19C2.5 19.2652 2.60536 19.5196 2.79289 19.7071C2.98043 19.8946 3.23478 20 3.5 20H13.5C13.7652 20 14.0196 19.8946 14.2071 19.7071C14.3946 19.5196 14.5 19.2652 14.5 19C14.5 18.7348 14.3946 18.4804 14.2071 18.2929C14.0196 18.1054 13.7652 18 13.5 18ZM3.5 8H11.5C11.7652 8 12.0196 7.89464 12.2071 7.70711C12.3946 7.51957 12.5 7.26522 12.5 7C12.5 6.73478 12.3946 6.48043 12.2071 6.29289C12.0196 6.10536 11.7652 6 11.5 6H3.5C3.23478 6 2.98043 6.10536 2.79289 6.29289C2.60536 6.48043 2.5 6.73478 2.5 7C2.5 7.26522 2.60536 7.51957 2.79289 7.70711C2.98043 7.89464 3.23478 8 3.5 8ZM3.5 12H11.5C11.7652 12 12.0196 11.8946 12.2071 11.7071C12.3946 11.5196 12.5 11.2652 12.5 11C12.5 10.7348 12.3946 10.4804 12.2071 10.2929C12.0196 10.1054 11.7652 10 11.5 10H3.5C3.23478 10 2.98043 10.1054 2.79289 10.2929C2.60536 10.4804 2.5 10.7348 2.5 11C2.5 11.2652 2.60536 11.5196 2.79289 11.7071C2.98043 11.8946 3.23478 12 3.5 12ZM21.5 14H3.5C3.23478 14 2.98043 14.1054 2.79289 14.2929C2.60536 14.4804 2.5 14.7348 2.5 15C2.5 15.2652 2.60536 15.5196 2.79289 15.7071C2.98043 15.8946 3.23478 16 3.5 16H21.5C21.7652 16 22.0196 15.8946 22.2071 15.7071C22.3946 15.5196 22.5 15.2652 22.5 15C22.5 14.7348 22.3946 14.4804 22.2071 14.2929C22.0196 14.1054 21.7652 14 21.5 14ZM21.5 4H15.5C15.2348 4 14.9804 4.10536 14.7929 4.29289C14.6054 4.48043 14.5 4.73478 14.5 5V11C14.5 11.2652 14.6054 11.5196 14.7929 11.7071C14.9804 11.8946 15.2348 12 15.5 12H21.5C21.7652 12 22.0196 11.8946 22.2071 11.7071C22.3946 11.5196 22.5 11.2652 22.5 11V5C22.5 4.73478 22.3946 4.48043 22.2071 4.29289C22.0196 4.10536 21.7652 4 21.5 4ZM20.5 10H16.5V6H20.5V10Z" fill="#898989"/>
</svg>
