<svg width="25" height="24" viewBox="0 0 25 24" fill="none" xmlns="http://www.w3.org/2000/svg">
<path d="M15.2699 5.87C15.4995 6.00037 15.7714 6.03464 16.0262 5.96532C16.2809 5.896 16.498 5.72873 16.6299 5.5C16.7391 5.30736 16.9091 5.15639 17.1133 5.07078C17.3175 4.98517 17.5443 4.96975 17.7582 5.02694C17.9721 5.08414 18.161 5.21071 18.2952 5.38681C18.4295 5.56291 18.5014 5.77858 18.4999 6C18.4999 6.26522 18.3945 6.51957 18.207 6.70711C18.0195 6.89464 17.7651 7 17.4999 7C17.2347 7 16.9803 7.10536 16.7928 7.29289C16.6053 7.48043 16.4999 7.73478 16.4999 8C16.4999 8.26522 16.6053 8.51957 16.7928 8.70711C16.9803 8.89464 17.2347 9 17.4999 9C18.0264 8.99966 18.5436 8.86075 18.9994 8.59723C19.4553 8.33371 19.8337 7.95486 20.0968 7.49875C20.3598 7.04264 20.4982 6.52533 20.498 5.9988C20.4978 5.47227 20.359 4.95507 20.0956 4.49917C19.8322 4.04326 19.4534 3.66472 18.9973 3.40156C18.5413 3.13841 18.024 2.99992 17.4975 3C16.971 3.00008 16.4537 3.13874 15.9978 3.40204C15.5418 3.66534 15.1632 4.04401 14.8999 4.5C14.8338 4.61413 14.7909 4.74022 14.7737 4.871C14.7565 5.00178 14.7654 5.13466 14.7998 5.262C14.8342 5.38934 14.8934 5.50862 14.9741 5.61297C15.0548 5.71732 15.1553 5.80467 15.2699 5.87ZM19.5699 13C19.3074 12.9659 19.0421 13.0373 18.8322 13.1985C18.6222 13.3597 18.4848 13.5976 18.4499 13.86C18.24 15.5552 17.4176 17.1151 16.1375 18.246C14.8574 19.3769 13.208 20.0007 11.4999 20H5.9099L6.5599 19.35C6.74615 19.1626 6.85069 18.9092 6.85069 18.645C6.85069 18.3808 6.74615 18.1274 6.5599 17.94C5.58484 16.9611 4.92128 15.7156 4.65279 14.3603C4.3843 13.005 4.52288 11.6005 5.05109 10.3238C5.57931 9.04714 6.47351 7.95532 7.62108 7.18589C8.76865 6.41646 10.1183 6.00384 11.4999 6C11.7651 6 12.0195 5.89464 12.207 5.70711C12.3945 5.51957 12.4999 5.26522 12.4999 5C12.4999 4.73478 12.3945 4.48043 12.207 4.29289C12.0195 4.10536 11.7651 4 11.4999 4C9.80913 4.00705 8.15454 4.49024 6.72569 5.39419C5.29684 6.29815 4.15153 7.58632 3.42096 9.11112C2.69039 10.6359 2.40412 12.3357 2.59494 14.0157C2.78576 15.6956 3.44596 17.2879 4.4999 18.61L2.7899 20.29C2.65114 20.4306 2.55714 20.6092 2.51977 20.8032C2.48239 20.9972 2.50332 21.1979 2.5799 21.38C2.65492 21.5626 2.78231 21.7189 2.94603 21.8293C3.10975 21.9396 3.30247 21.999 3.4999 22H11.4999C13.6913 22.0003 15.8076 21.201 17.4517 19.7521C19.0958 18.3031 20.1547 16.3041 20.4299 14.13C20.4482 13.9993 20.4404 13.8662 20.407 13.7385C20.3736 13.6107 20.3152 13.4909 20.2353 13.3858C20.1553 13.2808 20.0554 13.1926 19.9412 13.1264C19.827 13.0602 19.7008 13.0172 19.5699 13ZM17.8799 10.07C17.6978 9.98945 17.4959 9.96508 17.2999 10L17.1199 10.06L16.9399 10.15L16.7899 10.28C16.6999 10.3721 16.6286 10.4808 16.5799 10.6C16.5208 10.7247 16.4933 10.8621 16.4999 11C16.497 11.1334 16.5208 11.266 16.5699 11.39C16.6216 11.51 16.6964 11.6187 16.7899 11.71C16.8833 11.8027 16.9942 11.876 17.116 11.9258C17.2378 11.9755 17.3683 12.0008 17.4999 12C17.7651 12 18.0195 11.8946 18.207 11.7071C18.3945 11.5196 18.4999 11.2652 18.4999 11C18.5033 10.8688 18.4759 10.7387 18.4199 10.62C18.3124 10.3797 18.1202 10.1875 17.8799 10.08V10.07Z" fill="#898989"/>
</svg>
