<svg width="25" height="29" viewBox="0 0 25 29" fill="none" xmlns="http://www.w3.org/2000/svg">
<path opacity="0.3" d="M12.5 26.3162C14.1569 26.3162 15.5 24.7095 15.5 22.7276C15.5 20.7457 14.1569 19.139 12.5 19.139C10.8431 19.139 9.5 20.7457 9.5 22.7276C9.5 24.7095 10.8431 26.3162 12.5 26.3162Z" fill="#3699FF"/>
<path d="M19.5 17.9429V21.5314C19.5 22.2491 19.1 22.7276 18.5 22.7276H6.5C5.9 22.7276 5.5 22.2491 5.5 21.5314V17.9429C6.6 17.9429 7.5 16.8663 7.5 15.5505V11.9619C7.5 9.09105 9.2 6.69866 11.5 6.10057V3.58857C11.5 2.87086 11.9 2.39238 12.5 2.39238C13.1 2.39238 13.5 2.87086 13.5 3.58857V6.10057C15.8 6.69866 17.5 9.09105 17.5 11.9619V15.5505C17.5 16.8663 18.4 17.9429 19.5 17.9429ZM11.5 11.9619C11.5 11.2442 11.9 10.7657 12.5 10.7657C13.1 10.7657 13.5 10.2872 13.5 9.56952C13.5 8.85181 13.1 8.37333 12.5 8.37333C10.8 8.37333 9.5 9.92838 9.5 11.9619C9.5 12.6796 9.9 13.1581 10.5 13.1581C11.1 13.1581 11.5 12.6796 11.5 11.9619Z" fill="#3699FF"/>
</svg>
